PathFileType	4	(X/Y/Z)	/Users/itak/Documents/Research/Walk-IL/dataset/trc/00325_00011.trc
DataRate	CameraRate	NumFrames	NumMarkers	Units	OrigDataRate	OrigDataStartFrame	OrigNumFrames
100.000000	100.000000	4	54	mm	100.000000	0	433
Frame#	Time	RPSI			LPSI			L3			STRN			T10			C7			CLAV			RBAK			LBAK			LSHO			LUPA			LAEL			LAOL			LWPS			LFRA			LIFD			LHPS			LHTS			RSHO			RUPA			RAEL			RAOL			RWTS			RWPS			RFRA			RIFD			RHTS			RHPS			RBHD			LFHD			RFHD			LBHD			LHIP			RHIP			RASI			LASI			LKNE			LTHI			LANK			LTIP			LTOE			LMT1			LMT5			LHEE			RKNE			RANK			RTIP			RTOE			RMT1			RMT5			RHEE			LWTS			RTHI			*53			
		X1	Y1	Z1	X2	Y2	Z2	X3	Y3	Z3	X4	Y4	Z4	X5	Y5	Z5	X6	Y6	Z6	X7	Y7	Z7	X8	Y8	Z8	X9	Y9	Z9	X10	Y10	Z10	X11	Y11	Z11	X12	Y12	Z12	X13	Y13	Z13	X14	Y14	Z14	X15	Y15	Z15	X16	Y16	Z16	X17	Y17	Z17	X18	Y18	Z18	X19	Y19	Z19	X20	Y20	Z20	X21	Y21	Z21	X22	Y22	Z22	X23	Y23	Z23	X24	Y24	Z24	X25	Y25	Z25	X26	Y26	Z26	X27	Y27	Z27	X28	Y28	Z28	X29	Y29	Z29	X30	Y30	Z30	X31	Y31	Z31	X32	Y32	Z32	X33	Y33	Z33	X34	Y34	Z34	X35	Y35	Z35	X36	Y36	Z36	X37	Y37	Z37	X38	Y38	Z38	X39	Y39	Z39	X40	Y40	Z40	X41	Y41	Z41	X42	Y42	Z42	X43	Y43	Z43	X44	Y44	Z44	X45	Y45	Z45	X46	Y46	Z46	X47	Y47	Z47	X48	Y48	Z48	X49	Y49	Z49	X50	Y50	Z50	X51	Y51	Z51	X52	Y52	Z52	X53	Y53	Z53	X54	Y54	Z54	

1	0	-1447.212646484375	985.4644775390625	79.31882476806641	-1439.13037109375	987.0285034179688	-48.52835464477539	-1444.64306640625	1034.876953125	19.06887626647949	-1227.121337890625	1221.46875	21.84616470336914	-1465.162109375	1153.562744140625	6.922418117523193	-1425.147583007812	1402.58203125	-11.29214000701904	-1269.77392578125	1347.352783203125	10.70780849456787	-1476.934692382812	1264.598510742188	56.93792343139648	-1424.741821289062	1362.842651367188	-113.9801330566406	-1333.358642578125	1379.830932617188	-161.3610534667969	-1338.817016601562	1257.764770507812	-227.4756622314453	-1315.427734375	1053.079711914062	-229.5469665527344	-1386.388671875	1040.747802734375	-185.2471008300781	-1259.575927734375	798.6614990234375	-224.4682006835938	-1298.18505859375	948.8416748046875	-230.3634643554688	-1207.720581054688	663.9238891601562	-161.4071197509766	-1263.121948242188	728.26611328125	-218.4038696289062	-1209.301025390625	739.131591796875	-173.9769439697266	-1383.161743164062	1394.757690429688	158.1880950927734	-1395.5283203125	1329.448364257812	222.307861328125	-1368.979248046875	1060.788452148438	257.2431945800781	-1415.816162109375	1052.440673828125	174.5998229980469	-1253.606811523438	838.559814453125	194.4609069824219	-1280.760009765625	820.0903930664062	262.9571838378906	-1339.002197265625	994.4710083007812	261.0025329589844	-1228.594848632812	667.2017211914062	195.4365997314453	-1219.7333984375	739.1295166015625	201.4218139648438	-1262.5712890625	737.0150146484375	255.2922973632812	-1418.115234375	1598.885375976562	53.45278167724609	-1223.880126953125	1634.28662109375	-17.47149276733398	-1260.478881835938	1634.029052734375	76.93448638916016	-1391.64697265625	1589.884521484375	-88.28514862060547	-1348.97509765625	925.5199584960938	-147.3861236572266	-1379.037109375	926.1614990234375	192.9111328125	-1269.9111328125	953.989501953125	159.5716247558594	-1231.375854492188	947.4515380859375	-79.55101776123047	-1341.104858398438	469.4176635742188	-131.2745056152344	-1324.955810546875	605.856689453125	-139.5086059570312	-1438.919555664062	49.86347961425781	-122.779655456543	-1390.921752929688	254.1270599365234	-140.1439056396484	-1233.268310546875	44.35118865966797	-60.3438720703125	-1303.08642578125	34.65402603149414	-20.97972297668457	-1312.330200195312	45.15376663208008	-134.1834106445312	-1474.3662109375	44.62306594848633	-55.12848663330078	-1383.586791992188	463.4433288574219	169.7281036376953	-1443.519775390625	54.60311126708984	133.8834686279297	-1382.248046875	345.7071533203125	158.8331604003906	-1249.854736328125	44.34429550170898	83.73884582519531	-1305.511352539062	41.92652893066406	41.35516357421875	-1340.44580078125	43.22163391113281	153.4103698730469	-1492.983642578125	53.47532272338867	86.03326416015625	-1230.294921875	810.143798828125	-162.1802978515625	-1325.516723632812	719.518310546875	200.1128540039062	nan	nan	nan	
2	0.01	-1447.210693359375	985.454345703125	79.29241180419922	-1439.145141601562	987.03369140625	-48.55548858642578	-1444.649047851562	1034.875366210938	19.04326629638672	-1227.121704101562	1221.445678710938	21.76742362976074	-1465.177612304688	1153.559448242188	6.919183254241943	-1425.160400390625	1402.568969726562	-11.32228183746338	-1269.786499023438	1347.346435546875	10.63504600524902	-1476.928833007812	1264.589599609375	56.89620971679688	-1424.76708984375	1362.844482421875	-114.0019149780273	-1333.370849609375	1379.837890625	-161.3846435546875	-1338.83935546875	1257.778442382812	-227.5101776123047	-1315.448974609375	1053.0888671875	-229.6212463378906	-1386.438842773438	1040.754638671875	-185.3157043457031	-1259.582275390625	798.6759033203125	-224.5785675048828	-1298.255249023438	948.8492431640625	-230.475341796875	-1207.831665039062	663.8438720703125	-161.4443817138672	-1263.19873046875	728.296142578125	-218.5711059570312	-1209.260375976562	739.1920776367188	-173.994384765625	-1383.149047851562	1394.735473632812	158.1472320556641	-1395.529663085938	1329.43310546875	222.2675323486328	-1369.163208007812	1060.760498046875	257.1911315917969	-1415.906127929688	1052.424072265625	174.5424346923828	-1253.86328125	838.410888671875	194.646728515625	-1281.187866210938	820.00146484375	263.2181701660156	-1339.204223632812	994.4696044921875	261.0247802734375	-1229.227783203125	667.0220336914062	195.8387298583984	-1220.163696289062	738.8804931640625	201.760009765625	-1263.07421875	736.9105224609375	255.6105804443359	-1418.087036132812	1598.883666992188	53.47359848022461	-1223.82373046875	1634.275390625	-17.42638206481934	-1260.3935546875	1633.969970703125	76.97406768798828	-1391.578735351562	1589.923461914062	-88.26564025878906	-1348.996337890625	925.5169067382812	-147.413330078125	-1379.0517578125	926.1678466796875	192.8743591308594	-1269.987670898438	954.0225830078125	159.5599365234375	-1231.380493164062	947.446533203125	-79.56929016113281	-1341.106201171875	469.4156188964844	-131.2904815673828	-1324.9658203125	605.8533325195312	-139.5316772460938	-1438.9130859375	49.85795974731445	-122.7773132324219	-1390.917236328125	254.1181793212891	-140.1513214111328	-1233.26953125	44.35221099853516	-60.34098815917969	-1303.082763671875	34.65165328979492	-20.96910667419434	-1312.329345703125	45.15208053588867	-134.1800079345703	-1474.369262695312	44.61746215820312	-55.12999725341797	-1383.561889648438	463.4455261230469	169.6990356445312	-1443.523071289062	54.60467910766602	133.8786926269531	-1382.212890625	345.7026977539062	158.8014831542969	-1249.852294921875	44.34370803833008	83.73484802246094	-1305.5087890625	41.92478942871094	41.35289764404297	-1340.440307617188	43.22600936889648	153.404296875	-1492.984741210938	53.47750091552734	86.01626586914062	-1230.42626953125	810.121337890625	-162.2783813476562	-1325.532958984375	719.4823608398438	200.0321197509766	nan	nan	nan	
3	0.02	-1447.212280273438	985.4467163085938	79.26300048828125	-1439.169189453125	987.0419921875	-48.58747100830078	-1444.66064453125	1034.87548828125	19.01290321350098	-1227.115478515625	1221.419189453125	21.66340637207031	-1465.196533203125	1153.556762695312	6.912776947021484	-1425.17529296875	1402.555908203125	-11.35669422149658	-1269.79931640625	1347.339721679688	10.54094409942627	-1476.922729492188	1264.581787109375	56.84815216064453	-1424.80029296875	1362.848388671875	-114.0295181274414	-1333.389770507812	1379.848510742188	-161.417236328125	-1338.871948242188	1257.796752929688	-227.5538024902344	-1315.473876953125	1053.101196289062	-229.7120513916016	-1386.49755859375	1040.763793945312	-185.3983459472656	-1259.578857421875	798.6992797851562	-224.7093200683594	-1298.333862304688	948.8599853515625	-230.6085662841797	-1207.936157226562	663.7817993164062	-161.5170135498047	-1263.2646484375	728.3362426757812	-218.7629852294922	-1209.195068359375	739.2627563476562	-174.0261993408203	-1383.12841796875	1394.707641601562	158.0953063964844	-1395.524780273438	1329.414916992188	222.2171783447266	-1369.387939453125	1060.727172851562	257.1292419433594	-1416.00927734375	1052.405151367188	174.4733581542969	-1254.190795898438	838.227294921875	194.8864135742188	-1281.727661132812	819.89453125	263.5347290039062	-1339.464599609375	994.4637451171875	261.0677490234375	-1229.981567382812	666.8115844726562	196.3548278808594	-1220.7158203125	738.5687255859375	202.1797637939453	-1263.704223632812	736.7875366210938	256.0159606933594	-1418.050659179688	1598.879150390625	53.50007629394531	-1223.753784179688	1634.26123046875	-17.37079048156738	-1260.284790039062	1633.892578125	77.01975250244141	-1391.494750976562	1589.977661132812	-88.2401123046875	-1349.054321289062	925.5166625976562	-147.4622802734375	-1379.071166992188	926.176025390625	192.8289031982422	-1270.072998046875	954.0567626953125	159.5379333496094	-1231.395263671875	947.44189453125	-79.59648132324219	-1341.112426757812	469.4107971191406	-131.3126373291016	-1324.977172851562	605.8456420898438	-139.5580139160156	-1438.908447265625	49.85414505004883	-122.7751083374023	-1390.915649414062	254.1066741943359	-140.1617126464844	-1233.271728515625	44.35431671142578	-60.33695983886719	-1303.078735351562	34.65033340454102	-20.96009826660156	-1312.32568359375	45.14915466308594	-134.1766052246094	-1474.374389648438	44.60970687866211	-55.13216018676758	-1383.53076171875	463.4481811523438	169.6607360839844	-1443.525268554688	54.60575103759766	133.8713836669922	-1382.166137695312	345.6969604492188	158.7611999511719	-1249.850463867188	44.34324264526367	83.73088836669922	-1305.505981445312	41.92257690429688	41.35055160522461	-1340.4345703125	43.23073196411133	153.3961944580078	-1492.984741210938	53.47815322875977	85.99845123291016	-1230.581176757812	810.0941162109375	-162.3946533203125	-1325.553955078125	719.43701171875	199.9314422607422	nan	nan	nan	
4	0.03	-1447.21875	985.4434814453125	79.23343658447266	-1439.203735351562	987.0531005859375	-48.62105560302734	-1444.679565429688	1034.8779296875	18.97984504699707	-1227.099243164062	1221.391479492188	21.53563117980957	-1465.2177734375	1153.55517578125	6.902880668640137	-1425.191040039062	1402.544677734375	-11.39222145080566	-1269.810546875	1347.333618164062	10.42837524414062	-1476.916137695312	1264.577026367188	56.79813385009766	-1424.83984375	1362.855224609375	-114.0617828369141	-1333.416137695312	1379.863159179688	-161.4589233398438	-1338.915283203125	1257.818969726562	-227.6047515869141	-1315.500854492188	1053.116333007812	-229.81396484375	-1386.560180664062	1040.77490234375	-185.4904632568359	-1259.560302734375	798.7330932617188	-224.8509368896484	-1298.412841796875	948.8740234375	-230.753173828125	-1208.012939453125	663.7592163085938	-161.6301879882812	-1263.305297851562	728.3865966796875	-218.9635162353516	-1209.104736328125	739.3394775390625	-174.0761108398438	-1383.09765625	1394.675903320312	158.0338439941406	-1395.510986328125	1329.395385742188	222.1591644287109	-1369.639526367188	1060.69091796875	257.0621337890625	-1416.117309570312	1052.38623046875	174.3964385986328	-1254.580444335938	838.0162963867188	195.1727600097656	-1282.353881835938	819.7781372070312	263.8877868652344	-1339.772705078125	994.4519653320312	261.1344299316406	-1230.810302734375	666.58740234375	196.9661560058594	-1221.365112304688	738.207275390625	202.6636047363281	-1264.434814453125	736.6573486328125	256.5019836425781	-1418.007446289062	1598.871459960938	53.53149032592773	-1223.67431640625	1634.244384765625	-17.30737686157227	-1260.157104492188	1633.798950195312	77.06767272949219	-1391.398681640625	1590.047485351562	-88.20944976806641	-1349.167358398438	925.5220336914062	-147.5411529541016	-1379.093994140625	926.1849365234375	192.7776336669922	-1270.156494140625	954.0851440429688	159.5027160644531	-1231.42431640625	947.4376220703125	-79.63381958007812	-1341.125732421875	469.4022216796875	-131.3415374755859	-1324.99072265625	605.8333740234375	-139.5865173339844	-1438.906616210938	49.85256195068359	-122.7735061645508	-1390.918701171875	254.0931854248047	-140.1752319335938	-1233.275268554688	44.35789489746094	-60.33176040649414	-1303.075073242188	34.65008926391602	-20.95397567749023	-1312.3203125	45.14558792114258	-134.1735076904297	-1474.38134765625	44.60058975219727	-55.13458251953125	-1383.494995117188	463.4513854980469	169.6147308349609	-1443.525268554688	54.60584259033203	133.8614807128906	-1382.108764648438	345.6895141601562	158.7137451171875	-1249.85009765625	44.34284591674805	83.72698211669922	-1305.503051757812	41.91985321044922	41.34811019897461	-1340.430053710938	43.23586273193359	153.3865814208984	-1492.983276367188	53.47705841064453	85.98171234130859	-1230.744750976562	810.0642700195312	-162.518310546875	-1325.578491210938	719.38330078125	199.8158416748047	nan	nan	nan	
